<?xml version="1.0" encoding="UTF-8"?>
<svg version="1.1" xmlns="http://www.w3.org/2000/svg" width="250" height="292">
<path d="M0 0 C1.04932709 0.00465271 2.09865417 0.00930542 3.17977905 0.01409912 C18.3278176 0.09273935 33.15952751 0.4212577 48.0625 3.375 C49.12549316 3.57899414 50.18848633 3.78298828 51.28369141 3.99316406 C75.12656257 8.66583629 104.57904568 14.71936379 125.0625 28.375 C124.44380684 32.16150467 123.33897728 35.28546443 121.71875 38.7578125 C121.22310547 39.82451172 120.72746094 40.89121094 120.21679688 41.99023438 C119.67087891 43.14845703 119.12496094 44.30667969 118.5625 45.5 C117.98485143 46.73494438 117.40738193 47.96997254 116.83007812 49.20507812 C111.8169831 59.89730819 106.64558476 70.51252287 101.46438599 81.12402344 C96.16178375 91.9857508 90.99776943 102.89806393 85.9453125 113.87890625 C81.43604792 123.64711464 76.74601548 133.32149501 72.03045654 142.99133301 C67.46095088 152.3666934 62.98469611 161.77478107 58.625 171.25 C53.3908917 182.62336315 47.95282972 193.88661768 42.45825195 205.13574219 C37.21084836 215.88424952 32.10231264 226.68262007 27.10791016 237.55151367 C21.60801254 249.46509846 15.84063059 261.24716178 10.06469727 273.02880859 C9.68899094 273.79649063 9.31328461 274.56417267 8.92619324 275.3551178 C8.22401569 276.78935801 7.52036448 278.22287816 6.81489563 279.65550232 C4.76363578 283.84536415 2.86750219 288.07304325 1.0625 292.375 C-2.31425508 289.60407835 -3.86877473 285.82648333 -5.7109375 281.97265625 C-6.07072189 281.23211502 -6.43050629 280.49157379 -6.80119324 279.72859192 C-7.97804677 277.30127335 -9.14547446 274.86955713 -10.3125 272.4375 C-11.13112776 270.74285573 -11.95005953 269.04835829 -12.76928711 267.35400391 C-17.96311614 256.58957146 -23.04008157 245.77551547 -28.03271484 234.91625977 C-32.37335169 225.50567782 -36.8892732 216.18659367 -41.4375 206.875 C-47.08571414 195.31122282 -52.60658818 183.70433101 -57.984375 172.01171875 C-62.34352738 162.57048525 -66.8737262 153.21862008 -71.4375 143.875 C-77.08568816 132.31120947 -82.60658775 120.70433194 -87.984375 109.01171875 C-92.68999339 98.82009476 -97.59890923 88.73289075 -102.52590942 78.64694214 C-109.12695979 65.12733102 -115.51816975 51.52082455 -121.78686523 37.84399414 C-122.8781392 35.40307068 -122.8781392 35.40307068 -124.15258789 33.29467773 C-124.9375 31.375 -124.9375 31.375 -124.84179688 29.26855469 C-123.56786296 26.60099761 -122.17895335 26.19647328 -119.46875 25.078125 C-118.04320801 24.48209473 -118.04320801 24.48209473 -116.58886719 23.87402344 C-115.02894043 23.25575684 -115.02894043 23.25575684 -113.4375 22.625 C-112.35887695 22.18961914 -111.28025391 21.75423828 -110.16894531 21.30566406 C-94.05204065 14.91584579 -77.75298946 9.77130907 -60.8125 6.0625 C-59.76674805 5.83208008 -58.72099609 5.60166016 -57.64355469 5.36425781 C-38.50255371 1.40344904 -19.52326519 -0.15538079 0 0 Z " fill="#1D1918" transform="translate(124.9375,-0.375)"/>
<path d="M0 0 C1.04932709 0.00465271 2.09865417 0.00930542 3.17977905 0.01409912 C18.3278176 0.09273935 33.15952751 0.4212577 48.0625 3.375 C49.12549316 3.57899414 50.18848633 3.78298828 51.28369141 3.99316406 C75.12656257 8.66583629 104.57904568 14.71936379 125.0625 28.375 C124.44380684 32.16150467 123.33897728 35.28546443 121.71875 38.7578125 C121.22310547 39.82451172 120.72746094 40.89121094 120.21679688 41.99023438 C119.67087891 43.14845703 119.12496094 44.30667969 118.5625 45.5 C117.98485143 46.73494438 117.40738193 47.96997254 116.83007812 49.20507812 C111.8169831 59.89730819 106.64558476 70.51252287 101.46438599 81.12402344 C96.16178375 91.9857508 90.99776943 102.89806393 85.9453125 113.87890625 C81.43604792 123.64711464 76.74601548 133.32149501 72.03045654 142.99133301 C67.46095088 152.3666934 62.98469611 161.77478107 58.625 171.25 C53.3908917 182.62336315 47.95282972 193.88661768 42.45825195 205.13574219 C37.21084836 215.88424952 32.10231264 226.68262007 27.10791016 237.55151367 C21.60801254 249.46509846 15.84063059 261.24716178 10.06469727 273.02880859 C9.68899094 273.79649063 9.31328461 274.56417267 8.92619324 275.3551178 C8.22401569 276.78935801 7.52036448 278.22287816 6.81489563 279.65550232 C4.76363578 283.84536415 2.86750219 288.07304325 1.0625 292.375 C-2.31425508 289.60407835 -3.86877473 285.82648333 -5.7109375 281.97265625 C-6.07072189 281.23211502 -6.43050629 280.49157379 -6.80119324 279.72859192 C-7.97804677 277.30127335 -9.14547446 274.86955713 -10.3125 272.4375 C-11.13112776 270.74285573 -11.95005953 269.04835829 -12.76928711 267.35400391 C-17.96311614 256.58957146 -23.04008157 245.77551547 -28.03271484 234.91625977 C-32.37335169 225.50567782 -36.8892732 216.18659367 -41.4375 206.875 C-47.08571414 195.31122282 -52.60658818 183.70433101 -57.984375 172.01171875 C-62.34352738 162.57048525 -66.8737262 153.21862008 -71.4375 143.875 C-77.08568816 132.31120947 -82.60658775 120.70433194 -87.984375 109.01171875 C-92.68999339 98.82009476 -97.59890923 88.73289075 -102.52590942 78.64694214 C-109.12695979 65.12733102 -115.51816975 51.52082455 -121.78686523 37.84399414 C-122.8781392 35.40307068 -122.8781392 35.40307068 -124.15258789 33.29467773 C-124.9375 31.375 -124.9375 31.375 -124.84179688 29.26855469 C-123.56786296 26.60099761 -122.17895335 26.19647328 -119.46875 25.078125 C-118.04320801 24.48209473 -118.04320801 24.48209473 -116.58886719 23.87402344 C-115.02894043 23.25575684 -115.02894043 23.25575684 -113.4375 22.625 C-112.35887695 22.18961914 -111.28025391 21.75423828 -110.16894531 21.30566406 C-94.05204065 14.91584579 -77.75298946 9.77130907 -60.8125 6.0625 C-59.76674805 5.83208008 -58.72099609 5.60166016 -57.64355469 5.36425781 C-38.50255371 1.40344904 -19.52326519 -0.15538079 0 0 Z M-99.9375 68.375 C-99.30625902 73.00056883 -97.42316028 76.84487621 -95.359375 80.97265625 C-94.81545357 82.07922325 -94.81545357 82.07922325 -94.26054382 83.20814514 C-93.4807754 84.79369464 -92.69852154 86.37802376 -91.91403198 87.96124268 C-89.83211737 92.1644403 -87.76966234 96.3771578 -85.70703125 100.58984375 C-85.29393204 101.43276978 -84.88083282 102.2756958 -84.45521545 103.14416504 C-80.99600143 110.21850545 -77.65886094 117.34239154 -74.375 124.5 C-69.53618651 135.02958506 -64.5232037 145.46302882 -59.4375 155.875 C-53.78928586 167.43877718 -48.26841182 179.04566899 -42.890625 190.73828125 C-38.18375114 200.9326244 -33.27371573 211.02263709 -28.34506226 221.1111145 C-22.83505002 232.39500918 -17.45526019 243.72915744 -12.22265625 255.14453125 C-9.33188748 261.43894712 -6.32263152 267.64664584 -3.14331055 273.80102539 C-2.10329712 276.0210824 -1.41554854 277.98193905 -0.9375 280.375 C2.28959725 279.66269943 2.28959725 279.66269943 3.66552734 276.67651367 C4.25376174 275.47044343 4.8305643 274.25875869 5.3984375 273.04296875 C5.87139 272.06136024 5.87139 272.06136024 6.35389709 271.05992126 C7.39180842 268.89876152 8.41470527 266.73084966 9.4375 264.5625 C10.16079629 263.04831002 10.88484443 261.53447897 11.60961914 260.02099609 C16.51084232 249.76056023 21.30094283 239.44868945 26.05615234 229.11987305 C30.78480736 218.88216859 35.71669106 208.74874355 40.66574097 198.61627197 C45.40196384 188.91459268 50.05114652 179.18377614 54.5625 169.375 C59.42408894 158.80472708 64.45662315 148.32885367 69.5625 137.875 C75.33836233 126.04831075 80.99859227 114.18111123 86.50268555 102.22509766 C90.50599014 93.53479522 94.61720187 84.90035125 98.81396484 76.30175781 C99.24273926 75.41584961 99.67151367 74.52994141 100.11328125 73.6171875 C100.49137939 72.8422998 100.86947754 72.06741211 101.2590332 71.26904297 C102.19267414 69.41103808 102.19267414 69.41103808 102.0625 67.375 C38.09947402 41.54128898 -36.77044621 35.10406395 -99.9375 68.375 Z " fill="#241B17" transform="translate(124.9375,-0.375)"/>
<path d="M0 0 C33.73405207 0 67.14618828 7.27266851 98 21 C97.36875902 25.62556883 95.48566028 29.46987621 93.421875 33.59765625 C92.87795357 34.70422325 92.87795357 34.70422325 92.32304382 35.83314514 C91.5432754 37.41869464 90.76102154 39.00302376 89.97653198 40.58624268 C87.89461737 44.7894403 85.83216234 49.0021578 83.76953125 53.21484375 C83.14988243 54.47923279 83.14988243 54.47923279 82.51771545 55.76916504 C79.05850143 62.84350545 75.72136094 69.96739154 72.4375 77.125 C67.59868651 87.65458506 62.5857037 98.08802882 57.5 108.5 C52.39395876 118.95376852 47.3615861 129.42973325 42.5 140 C37.29203784 151.32337227 31.87921723 162.53597595 26.40856934 173.73410034 C20.86975209 185.07727537 15.46318171 196.47290161 10.19726562 207.9453125 C7.24961683 214.36008892 4.20455276 220.70935412 1 227 C0.67 227 0.34 227 0 227 C0 181.13 0 135.26 0 88 C-2.31 88 -4.62 88 -7 88 C-9.765625 87.01171875 -9.765625 87.01171875 -12.25 85.6875 C-13.08015625 85.25824219 -13.9103125 84.82898438 -14.765625 84.38671875 C-18.6140049 81.99830115 -18.6140049 81.99830115 -20 80 C-19.67 78.35 -19.34 76.7 -19 75 C-12.73 75 -6.46 75 0 75 C0 73.68 0 72.36 0 71 C-0.78375 70.71125 -1.5675 70.4225 -2.375 70.125 C-5 69 -5 69 -7 67 C-4.69 67.33 -2.38 67.66 0 68 C0 45.56 0 23.12 0 0 Z " fill="#E20117" transform="translate(126,47)"/>
<path d="M0 0 C1.04932709 0.00465271 2.09865417 0.00930542 3.17977905 0.01409912 C18.3278176 0.09273935 33.15952751 0.4212577 48.0625 3.375 C49.12549316 3.57899414 50.18848633 3.78298828 51.28369141 3.99316406 C75.12656257 8.66583629 104.57904568 14.71936379 125.0625 28.375 C124.44380684 32.16150467 123.33897728 35.28546443 121.71875 38.7578125 C121.22310547 39.82451172 120.72746094 40.89121094 120.21679688 41.99023438 C119.67087891 43.14845703 119.12496094 44.30667969 118.5625 45.5 C117.98485143 46.73494438 117.40738193 47.96997254 116.83007812 49.20507812 C111.8169831 59.89730819 106.64558476 70.51252287 101.46438599 81.12402344 C96.16178375 91.9857508 90.99776943 102.89806393 85.9453125 113.87890625 C81.43604792 123.64711464 76.74601548 133.32149501 72.03045654 142.99133301 C67.46095088 152.3666934 62.98469611 161.77478107 58.625 171.25 C53.3908917 182.62336315 47.95282972 193.88661768 42.45825195 205.13574219 C37.21084836 215.88424952 32.10231264 226.68262007 27.10791016 237.55151367 C21.60801254 249.46509846 15.84063059 261.24716178 10.06469727 273.02880859 C9.68899094 273.79649063 9.31328461 274.56417267 8.92619324 275.3551178 C8.22401569 276.78935801 7.52036448 278.22287816 6.81489563 279.65550232 C4.76363578 283.84536415 2.86750219 288.07304325 1.0625 292.375 C-2.31425508 289.60407835 -3.86877473 285.82648333 -5.7109375 281.97265625 C-6.07072189 281.23211502 -6.43050629 280.49157379 -6.80119324 279.72859192 C-7.97804677 277.30127335 -9.14547446 274.86955713 -10.3125 272.4375 C-11.13112776 270.74285573 -11.95005953 269.04835829 -12.76928711 267.35400391 C-17.96311614 256.58957146 -23.04008157 245.77551547 -28.03271484 234.91625977 C-32.37335169 225.50567782 -36.8892732 216.18659367 -41.4375 206.875 C-47.08571414 195.31122282 -52.60658818 183.70433101 -57.984375 172.01171875 C-62.34352738 162.57048525 -66.8737262 153.21862008 -71.4375 143.875 C-77.08568816 132.31120947 -82.60658775 120.70433194 -87.984375 109.01171875 C-92.68999339 98.82009476 -97.59890923 88.73289075 -102.52590942 78.64694214 C-109.12695979 65.12733102 -115.51816975 51.52082455 -121.78686523 37.84399414 C-122.8781392 35.40307068 -122.8781392 35.40307068 -124.15258789 33.29467773 C-124.9375 31.375 -124.9375 31.375 -124.84179688 29.26855469 C-123.56786296 26.60099761 -122.17895335 26.19647328 -119.46875 25.078125 C-118.04320801 24.48209473 -118.04320801 24.48209473 -116.58886719 23.87402344 C-115.02894043 23.25575684 -115.02894043 23.25575684 -113.4375 22.625 C-112.35887695 22.18961914 -111.28025391 21.75423828 -110.16894531 21.30566406 C-94.05204065 14.91584579 -77.75298946 9.77130907 -60.8125 6.0625 C-59.76674805 5.83208008 -58.72099609 5.60166016 -57.64355469 5.36425781 C-38.50255371 1.40344904 -19.52326519 -0.15538079 0 0 Z M-51.9375 7.375 C-52.99485352 7.57867188 -54.05220703 7.78234375 -55.14160156 7.9921875 C-77.92735797 12.44086787 -99.72396939 20.02530306 -120.9375 29.375 C-120.31428861 33.39324276 -119.0300027 36.58294095 -117.234375 40.22265625 C-116.67322998 41.37008301 -116.11208496 42.51750977 -115.53393555 43.69970703 C-115.08357437 44.611185 -115.08357437 44.611185 -114.62411499 45.54107666 C-113.00887224 48.81156036 -111.41318238 52.09156449 -109.81640625 55.37109375 C-109.48852615 56.04358154 -109.16064606 56.71606934 -108.8228302 57.40893555 C-105.6667413 63.89794611 -102.63810167 70.4435022 -99.625 77 C-94.3483367 88.45479738 -88.86950793 99.80099333 -83.33480835 111.13262939 C-78.05659769 121.94450234 -72.91820465 132.80710428 -67.890625 143.73828125 C-63.53147262 153.17951475 -59.0012738 162.53137992 -54.4375 171.875 C-48.78931184 183.43879053 -43.26841225 195.04566806 -37.890625 206.73828125 C-33.18500661 216.92990524 -28.27609077 227.01710925 -23.34909058 237.10305786 C-16.74804021 250.62266898 -10.35683025 264.22917545 -4.08813477 277.90600586 C-3.07381082 280.08250875 -2.02417596 282.23389459 -0.9375 284.375 C-0.2775 284.375 0.3825 284.375 1.0625 284.375 C10.27231458 265.59569242 19.47649988 246.82313997 28.20776367 227.81542969 C32.53083485 218.43799446 37.03063327 209.15290438 41.5625 199.875 C46.66856467 189.42124363 51.7009143 178.94526587 56.5625 168.375 C61.42408691 157.80473149 66.45650567 147.32879282 71.5625 136.875 C77.23279397 125.26570602 82.77726383 113.6134863 88.17749023 101.87548828 C92.37774407 92.77591647 96.73313527 83.75824783 101.125 74.75 C106.18110468 64.36877325 111.19095034 53.96929305 116.0625 43.5 C116.57304932 42.41251465 117.08359863 41.3250293 117.60961914 40.20458984 C118.29785767 38.71499756 118.29785767 38.71499756 119 37.1953125 C119.40089844 36.33180176 119.80179688 35.46829102 120.21484375 34.57861328 C121.24201033 32.30183913 121.24201033 32.30183913 121.0625 29.375 C100.48173376 20.72627333 79.74545918 13.22875239 57.875 8.5625 C57.02349365 8.37969482 56.1719873 8.19688965 55.29467773 8.00854492 C36.9054996 4.34426189 18.60074995 2.81764472 -0.125 2.9375 C-1.14387299 2.94054138 -2.16274597 2.94358276 -3.2124939 2.94671631 C-19.76938822 3.01944982 -35.67726439 4.05009225 -51.9375 7.375 Z " fill="#201717" transform="translate(124.9375,-0.375)"/>
<path d="M0 0 C1.87866804 0.33207964 3.75757064 0.66283532 5.63671875 0.9921875 C17.41310202 3.18766174 28.71361701 6.66726286 40.0625 10.4375 C40.75378998 10.6664798 41.44507996 10.89545959 42.15731812 11.13137817 C51.65604769 14.29988549 60.85492471 17.91777545 70 22 C69.37935479 25.81444491 68.2543496 28.95625536 66.62109375 32.453125 C65.86989258 34.06864258 65.86989258 34.06864258 65.10351562 35.71679688 C64.55373047 36.88275391 64.00394531 38.04871094 63.4375 39.25 C62.85721075 40.49013561 62.27713756 41.73037233 61.69726562 42.97070312 C56.88699599 53.23052952 51.93756071 63.42258661 46.97235107 73.60809326 C42.40132388 82.98619228 37.92350524 92.39693585 33.5625 101.875 C28.32870465 113.24768314 22.89091422 124.51023138 17.39675903 135.75872803 C12.66053616 145.46040732 8.01135348 155.19122386 3.5 165 C-1.71186077 176.33184881 -7.12963793 187.55236049 -12.60351562 198.75927734 C-17.87151885 209.55026264 -23.00117292 220.39135915 -28.01831055 231.30175781 C-35.10399385 246.64943903 -42.57251957 261.81564303 -50 277 C-50.66 277 -51.32 277 -52 277 C-58.88634645 262.84395313 -65.72867324 248.67488406 -72.3125 234.375 C-77.59004743 222.92059212 -83.06798001 211.57403135 -88.60269165 200.24237061 C-93.88090231 189.43049766 -99.01929535 178.56789572 -104.046875 167.63671875 C-108.40602738 158.19548525 -112.9362262 148.84362008 -117.5 139.5 C-123.14818816 127.93620947 -128.66908775 116.32933194 -134.046875 104.63671875 C-138.75280726 94.44441497 -143.66200278 84.35650868 -148.5894165 74.26992798 C-155.15321504 60.82695932 -161.50798391 47.29786355 -167.73583984 33.69604492 C-168.66140989 31.72210325 -169.64417301 29.77470594 -170.65869141 27.8449707 C-172 25 -172 25 -172 22 C-149.43838291 12.64414749 -127.01561291 4.65956624 -103 0 C-102.0311084 -0.19754883 -101.0622168 -0.39509766 -100.06396484 -0.59863281 C-67.71192952 -6.98851275 -32.28372257 -6.39122107 0 0 Z M-103 3 C-104.07910645 3.20898926 -105.15821289 3.41797852 -106.27001953 3.63330078 C-127.90108371 7.91081088 -148.98466795 14.72016423 -169 24 C-167.03576783 30.24502515 -164.28156491 36.04424162 -161.4597168 41.93334961 C-160.55884963 43.82014541 -159.67297459 45.71354534 -158.78710938 47.60742188 C-158.21927734 48.79529297 -157.65144531 49.98316406 -157.06640625 51.20703125 C-156.55021729 52.2947583 -156.03402832 53.38248535 -155.50219727 54.50317383 C-154.18901763 57.2980355 -154.18901763 57.2980355 -151 58 C-148.20966453 56.91167847 -145.52985959 55.74893654 -142.8125 54.5 C-114.67355558 42.20528754 -83.91670624 36.7445951 -53.3125 36.875 C-52.59913483 36.87754791 -51.88576965 36.88009583 -51.15078735 36.88272095 C-46.43355989 36.90249372 -41.71695094 36.94565725 -37 37 C-36.14116211 37.00725098 -35.28232422 37.01450195 -34.39746094 37.02197266 C-9.63150138 37.36289464 14.4660615 44.92749379 37.58203125 53.09765625 C42.36978325 54.78840304 47.1764274 56.41456726 52 58 C53.81900464 54.12419734 55.63362563 50.24638126 57.44433594 46.36669922 C58.06001723 45.04908958 58.67686131 43.7320226 59.29492188 42.41552734 C60.18671235 40.51543829 61.07420505 38.61339133 61.9609375 36.7109375 C62.76217041 34.99849854 62.76217041 34.99849854 63.57958984 33.25146484 C64.91027939 30.20537971 66.00503801 27.16960465 67 24 C38.44140088 12.19005299 9.84483398 3.29669489 -21 0 C-21.77770752 -0.0935376 -22.55541504 -0.1870752 -23.35668945 -0.28344727 C-49.53909337 -3.12552355 -77.22108063 -2.17800366 -103 3 Z M-151 61 C-150.36875902 65.62556883 -148.48566028 69.46987621 -146.421875 73.59765625 C-145.87795357 74.70422325 -145.87795357 74.70422325 -145.32304382 75.83314514 C-144.5432754 77.41869464 -143.76102154 79.00302376 -142.97653198 80.58624268 C-140.89461737 84.7894403 -138.83216234 89.0021578 -136.76953125 93.21484375 C-136.35643204 94.05776978 -135.94333282 94.9006958 -135.51771545 95.76916504 C-132.05850143 102.84350545 -128.72136094 109.96739154 -125.4375 117.125 C-120.59868651 127.65458506 -115.5857037 138.08802882 -110.5 148.5 C-104.85178586 160.06377718 -99.33091182 171.67066899 -93.953125 183.36328125 C-89.24625114 193.5576244 -84.33621573 203.64763709 -79.40756226 213.7361145 C-73.89755002 225.02000918 -68.51776019 236.35415744 -63.28515625 247.76953125 C-60.39438748 254.06394712 -57.38513152 260.27164584 -54.20581055 266.42602539 C-53.16579712 268.6460824 -52.47804854 270.60693905 -52 273 C-48.77290275 272.28769943 -48.77290275 272.28769943 -47.39697266 269.30151367 C-46.80873826 268.09544343 -46.2319357 266.88375869 -45.6640625 265.66796875 C-45.19111 264.68636024 -45.19111 264.68636024 -44.70860291 263.68492126 C-43.67069158 261.52376152 -42.64779473 259.35584966 -41.625 257.1875 C-40.90170371 255.67331002 -40.17765557 254.15947897 -39.45288086 252.64599609 C-34.55165768 242.38556023 -29.76155717 232.07368945 -25.00634766 221.74487305 C-20.27769264 211.50716859 -15.34580894 201.37374355 -10.39675903 191.24127197 C-5.66053616 181.53959268 -1.01135348 171.80877614 3.5 162 C8.36158894 151.42972708 13.39412315 140.95385367 18.5 130.5 C24.27586233 118.67331075 29.93609227 106.80611123 35.44018555 94.85009766 C39.44349014 86.15979522 43.55470187 77.52535125 47.75146484 68.92675781 C48.18023926 68.04084961 48.60901367 67.15494141 49.05078125 66.2421875 C49.42887939 65.4672998 49.80697754 64.69241211 50.1965332 63.89404297 C51.13017414 62.03603808 51.13017414 62.03603808 51 60 C-12.96302598 34.16628898 -87.83294621 27.72906395 -151 61 Z " fill="#CF0216" transform="translate(176,7)"/>
<path d="M0 0 C6.15932 2.24231963 12.20122708 4.73806986 18.2265625 7.31640625 C16.82589498 11.7989687 15.07155467 16.01556912 13.05859375 20.25 C12.74716431 20.91168686 12.43573486 21.57337372 12.11486816 22.25511169 C11.09310586 24.42305144 10.06622752 26.58852171 9.0390625 28.75390625 C8.31846812 30.27939568 7.59801117 31.80495005 6.87768555 33.33056641 C1.85100333 43.96090363 -3.25780604 54.55038562 -8.40127563 65.12460327 C-12.7470117 74.06204449 -16.9917314 83.03897451 -21.1484375 92.06640625 C-26.4043114 103.47986109 -31.8619683 114.78450223 -37.37640381 126.07458496 C-42.64847664 136.87389228 -47.78207212 147.7233554 -52.80273438 158.64233398 C-58.02308893 169.9506582 -63.47641813 181.1431863 -68.95117188 192.33007812 C-72.67351033 199.94295904 -76.33150946 207.57103393 -79.7734375 215.31640625 C-80.4334375 214.98640625 -81.0934375 214.65640625 -81.7734375 214.31640625 C-80.46507761 210.14777572 -78.89660121 206.2918818 -76.97265625 202.37109375 C-76.41473389 201.22688965 -75.85681152 200.08268555 -75.28198242 198.90380859 C-74.98585052 198.3002655 -74.68971863 197.69672241 -74.38461304 197.07489014 C-72.78644325 193.81603253 -71.20126473 190.55088239 -69.6171875 187.28515625 C-69.29239914 186.61576019 -68.96761078 185.94636414 -68.63298035 185.25668335 C-65.49495574 178.77199135 -62.4710411 172.23634964 -59.4609375 165.69140625 C-54.18390848 154.23677005 -48.7054504 142.89042309 -43.17074585 131.55877686 C-38.43433796 121.85673128 -33.78496248 112.12555526 -29.2734375 102.31640625 C-24.41184734 91.74613068 -19.37924373 81.2702965 -14.2734375 70.81640625 C-7.39130125 56.72359969 -0.71317012 42.55196161 5.84570312 28.30566406 C7.88891879 23.88255009 9.96046288 19.47298077 12.0390625 15.06640625 C12.53708374 14.01042236 12.53708374 14.01042236 13.04516602 12.93310547 C13.77164772 11.39389856 14.4989828 9.85509445 15.2265625 8.31640625 C14.576875 8.21714844 13.9271875 8.11789063 13.2578125 8.015625 C9.25507626 7.09231342 5.55392182 5.60466169 1.7265625 4.12890625 C-15.76042157 -2.42511306 -33.34941325 -6.71206298 -51.7734375 -9.68359375 C-38.37597109 -16.76366893 -12.98260803 -4.60569654 0 0 Z " fill="#361517" transform="translate(208.7734375,59.68359375)"/>
<path d="M0 0 C4.37967072 0.50926404 7.40979428 1.40707365 11 4 C13.51806569 7.77709854 13.37253949 9.50652989 13 14 C11.96107261 17.48875451 10.48772342 20.7898826 9.04492188 24.12695312 C6.75711118 29.73074356 7.07141 33.21423001 9 39 C9.03626785 35.92425309 9.03626785 35.92425309 8.75 32.5625 C9 29 9 29 10.5625 26.5625 C13.90891409 24.41736276 16.0869864 24.58810383 20 25 C22.9375 26 22.9375 26 25 27 C25 27.33 25 27.66 25 28 C23.72125 28.12375 22.4425 28.2475 21.125 28.375 C17.65209064 28.69042399 17.65209064 28.69042399 15 31 C14.30036994 36.90148887 14.30036994 36.90148887 17.1875 41.875 C19.78254396 43.83569988 21.91407655 45.03013834 25 46 C25 46.33 25 46.66 25 47 C16.50671002 47.77211727 8.03700311 45.09373502 1.4375 39.6875 C-2.91103291 35.4474544 -4.64826245 31.71340398 -5.4375 25.625 C-4.78725775 20.23727853 -2.5737026 15.68486423 0.15625 11.02734375 C1.20418573 8.50938707 1.0190883 6.92980046 0.625 4.25 C0.51414062 3.45078125 0.40328125 2.6515625 0.2890625 1.828125 C0.19367188 1.22484375 0.09828125 0.6215625 0 0 Z " fill="#F9F3F3" transform="translate(90,90)"/>
<path d="M0 0 C-0.268125 1.11375 -0.53625 2.2275 -0.8125 3.375 C-1.4753596 8.33318984 0.38599336 11.5527312 2.7734375 15.80078125 C5.10003346 19.97235299 5.38727567 23.27523683 5 28 C3.00212568 34.23433071 -0.61177033 38.3584018 -6 42 C-8.9940576 43.31805254 -12.01609705 44.15576094 -15.1875 44.9375 C-15.98091797 45.15728516 -16.77433594 45.37707031 -17.59179688 45.60351562 C-21.50233549 46.63122225 -24.06346513 47.2387389 -28 46 C-27.32453125 45.78085938 -26.6490625 45.56171875 -25.953125 45.3359375 C-21.49691091 43.75179203 -18.57543169 42.64393546 -15.375 39.0625 C-13.44764276 34.76974979 -13.53118066 32.40645801 -15 28 C-16.87387216 27.19787372 -16.87387216 27.19787372 -19.0625 26.8125 C-20.16271484 26.57466797 -20.16271484 26.57466797 -21.28515625 26.33203125 C-22.13400391 26.16767578 -22.13400391 26.16767578 -23 26 C-21 24 -21 24 -17.625 23.75 C-14.35585022 23.97545861 -12.64580433 24.16828931 -10 26 C-8.50501087 28.98997825 -8.88422554 31.70042775 -9 35 C-9.33 35.99 -9.66 36.98 -10 38 C-7.79926111 35.09502466 -6.99017363 33.50114501 -7.0625 29.8125 C-7.83713193 26.66233016 -8.76081626 24.1834373 -10.0625 21.25 C-12.31356457 15.8292379 -13.06532538 10.81256481 -12 5 C-8.69125386 -0.11351677 -5.90249138 -0.57867563 0 0 Z " fill="#FEF8F9" transform="translate(160,91)"/>
<path d="M0 0 C11.88 0 23.76 0 36 0 C36.495 2.475 36.495 2.475 37 5 C30.06739574 11.25625263 24.49167051 13.65047643 15.078125 13.42578125 C9.35878835 12.63465473 4.75559213 10.03012838 0.16015625 6.64453125 C-0.22269531 6.10183594 -0.60554688 5.55914062 -1 5 C-0.67 3.35 -0.34 1.7 0 0 Z " fill="#FCF7F7" transform="translate(107,122)"/>
<path d="M0 0 C2.64 0 5.28 0 8 0 C8.33 1.98 8.66 3.96 9 6 C9.66 4.35 10.32 2.7 11 1 C13.64 1.33 16.28 1.66 19 2 C17.96324187 9.75362732 16.83622588 17.39277848 15 25 C13.35 25 11.7 25 10 25 C10.33 21.37 10.66 17.74 11 14 C10.01 17.3 9.02 20.6 8 24 C6.68 24 5.36 24 4 24 C3.67 21.36 3.34 18.72 3 16 C2.67 18.31 2.34 20.62 2 23 C0.35 23 -1.3 23 -3 23 C-2.53430878 15.1812896 -1.77541538 7.63600985 0 0 Z " fill="#F8C201" transform="translate(165,16)"/>
<path d="M0 0 C10 0 10 0 14 3 C14.25 5.9375 14.25 5.9375 14 9 C14 11.09664893 14.00896785 13.19463553 14.10546875 15.2890625 C14.13253906 16.05992188 14.15960938 16.83078125 14.1875 17.625 C14.22230469 18.40101562 14.25710937 19.17703125 14.29296875 19.9765625 C14.19628906 20.64429687 14.09960938 21.31203125 14 22 C11 24 11 24 0 24 C0 16.08 0 8.16 0 0 Z " fill="#ECB402" transform="translate(120,12)"/>
<path d="M0 0 C8.09247312 0.76344086 8.09247312 0.76344086 11 3 C11.9375 5.25 11.9375 5.25 12 8 C11.01789629 10.0088485 10.01559401 12.00787329 9 14 C8.6172264 16.06069036 8.6172264 16.06069036 8.4375 18.1875 C8 22 8 22 6 25 C1.428721 24.45144652 -2.67435795 23.58255197 -7 22 C-1.50649351 1.50649351 -1.50649351 1.50649351 0 0 Z " fill="#F0BB01" transform="translate(205,25)"/>
<path d="M0 0 C3.45316066 4.88205472 4.51017575 10.92110474 5.4375 16.75 C5 19 5 19 2.875 21.3125 C-0.47716367 23.28007433 -2.18025151 23.66430408 -6 23 C-8.82977239 20.0083252 -9.77333447 17.014009 -10.75 13.0625 C-11.01296875 12.04285156 -11.2759375 11.02320313 -11.546875 9.97265625 C-12.01183056 6.92238745 -11.89166525 4.93634592 -11 2 C-7.69669716 -1.81150327 -4.61346969 -1.42598154 0 0 Z " fill="#F9C300" transform="translate(61,22)"/>
<path d="M0 0 C3.82518233 0.3297571 4.97429905 0.66179905 7.625 3.3125 C8.39753444 9.34044479 6.34576909 16.91747069 3.625 22.3125 C0.625 24.3125 0.625 24.3125 -2.9375 24.0625 C-6.375 23.3125 -6.375 23.3125 -8.375 21.3125 C-8.97997113 14.65781752 -7.67314561 8.57441968 -5.375 2.3125 C-3.375 0.3125 -3.375 0.3125 0 0 Z " fill="#F7C101" transform="translate(192.375,20.6875)"/>
<path d="M0 0 C3.63 0 7.26 0 11 0 C13 2 13 2 13.125 5.9375 C13.08955922 7.29184391 13.04825952 8.64605226 13 10 C13 10.99 13 11.98 13 13 C13 16.33333333 13 19.66666667 13 23 C11.02 23 9.04 23 7 23 C7 19.7 7 16.4 7 13 C6.34 13 5.68 13 5 13 C5 16.3 5 19.6 5 23 C3.02 23 1.04 23 -1 23 C-0.67 15.41 -0.34 7.82 0 0 Z " fill="#F1BC01" transform="translate(138,13)"/>
<path d="M0 0 C1.17755859 -0.02126953 1.17755859 -0.02126953 2.37890625 -0.04296875 C4.4375 0.1875 4.4375 0.1875 6.4375 2.1875 C6.4375 4.85416667 6.4375 7.52083333 6.4375 10.1875 C7.0975 10.8475 7.7575 11.5075 8.4375 12.1875 C8.8515625 14.3515625 8.8515625 14.3515625 9.0625 16.8125 C9.13726562 17.62976563 9.21203125 18.44703125 9.2890625 19.2890625 C9.36253906 20.22878906 9.36253906 20.22878906 9.4375 21.1875 C7.7875 21.5175 6.1375 21.8475 4.4375 22.1875 C4.31632812 21.54941406 4.19515625 20.91132812 4.0703125 20.25390625 C3.90273437 19.42761719 3.73515625 18.60132812 3.5625 17.75 C3.40007812 16.92628906 3.23765625 16.10257813 3.0703125 15.25390625 C2.75707031 14.23103516 2.75707031 14.23103516 2.4375 13.1875 C1.7775 12.8575 1.1175 12.5275 0.4375 12.1875 C1.0975 15.8175 1.7575 19.4475 2.4375 23.1875 C0.4575 23.5175 -1.5225 23.8475 -3.5625 24.1875 C-4.8825 16.5975 -6.2025 9.0075 -7.5625 1.1875 C-4.76092552 0.25364184 -2.90802197 0.02395405 0 0 Z " fill="#F4BF01" transform="translate(72.5625,17.8125)"/>
<path d="M0 0 C1.32 0 2.64 0 4 0 C3.99097656 0.60585938 3.98195313 1.21171875 3.97265625 1.8359375 C4.21626496 8.72053154 6.27226391 12.58766758 10.50390625 17.96875 C12 20 12 20 12 22 C10.02 22.33 8.04 22.66 6 23 C4.68 21.35 3.36 19.7 2 18 C2.66 19.98 3.32 21.96 4 24 C2.02 24.33 0.04 24.66 -2 25 C-3.17171756 21.71010914 -4.33651088 18.41780898 -5.5 15.125 C-5.83386719 14.18785156 -6.16773438 13.25070313 -6.51171875 12.28515625 C-6.82753906 11.38925781 -7.14335938 10.49335937 -7.46875 9.5703125 C-7.76201172 8.74289551 -8.05527344 7.91547852 -8.35742188 7.06298828 C-9 5 -9 5 -9 3 C-7.02 2.67 -5.04 2.34 -3 2 C-2.67 2.99 -2.34 3.98 -2 5 C-1.34 3.35 -0.68 1.7 0 0 Z " fill="#F7C001" transform="translate(41,25)"/>
<path d="M0 0 C2 2 2 2 2 6 C0.35 6.33 -1.3 6.66 -3 7 C-3 5.68 -3 4.36 -3 3 C-3.66 3 -4.32 3 -5 3 C-3.63501982 7.91392865 -1.23958284 9.38408718 3 12 C4.55938978 15.11877956 4.3607834 17.57255771 4 21 C1.9375 23 1.9375 23 -1 24 C-4.6875 23.875 -4.6875 23.875 -8 23 C-10.1519437 19.77208445 -10.20086443 18.71599191 -10 15 C-8.02 15 -6.04 15 -4 15 C-4 16.65 -4 18.3 -4 20 C-3.34 20 -2.68 20 -2 20 C-2.03780298 17.62766389 -2.03780298 17.62766389 -3 15 C-5.9070643 12.83973235 -5.9070643 12.83973235 -9 11 C-11.15502531 7.76746204 -11.46856135 6.74849077 -11 3 C-8.62275974 -1.30874798 -4.31941333 -0.34281058 0 0 Z " fill="#F3BC01" transform="translate(109,13)"/>
<path d="M0 0 C1.37478516 0.01740234 1.37478516 0.01740234 2.77734375 0.03515625 C3.69644531 0.04417969 4.61554688 0.05320312 5.5625 0.0625 C6.27277344 0.07410156 6.98304687 0.08570313 7.71484375 0.09765625 C10.11685879 4.29645419 9.87348524 7.33841166 9.71484375 12.09765625 C7.73484375 12.42765625 5.75484375 12.75765625 3.71484375 13.09765625 C4.04484375 16.39765625 4.37484375 19.69765625 4.71484375 23.09765625 C2.73484375 23.09765625 0.75484375 23.09765625 -1.28515625 23.09765625 C-2.56473849 15.70578387 -3.6607458 8.60944721 -3.28515625 1.09765625 C-2.28515625 0.09765625 -2.28515625 0.09765625 0 0 Z " fill="#F0BC01" transform="translate(86.28515625,14.90234375)"/>
<path d="M0 0 C0.70253906 0.32355469 1.40507813 0.64710938 2.12890625 0.98046875 C0.46675357 2.31942507 -1.20072982 3.65177017 -2.87109375 4.98046875 C-3.48718506 5.51381836 -4.10327637 6.04716797 -4.73803711 6.59667969 C-7.2981698 8.25752804 -8.72284248 8.34228369 -11.75 8.30859375 C-13.13155273 8.30085937 -13.13155273 8.30085937 -14.54101562 8.29296875 C-15.49556641 8.27234375 -16.45011719 8.25171875 -17.43359375 8.23046875 C-18.39201172 8.2253125 -19.35042969 8.22015625 -20.33789062 8.21484375 C-27.40570896 8.13559701 -27.40570896 8.13559701 -30.87109375 6.98046875 C-30.87109375 6.32046875 -30.87109375 5.66046875 -30.87109375 4.98046875 C-30.21882813 4.79871094 -29.5665625 4.61695313 -28.89453125 4.4296875 C-23.25384552 2.83071393 -23.25384552 2.83071393 -17.99609375 0.29296875 C-12.40736906 -2.05429562 -5.71090366 -2.02795354 0 0 Z " fill="#F8F2F3" transform="translate(102.87109375,136.01953125)"/>
<path d="M0 0 C-6.60218511 3.7074023 -15.66084013 3.04293324 -23 2 C-26.59777469 0.51245854 -29.26490644 -1.24026596 -32 -4 C-31 -6 -31 -6 -29.26953125 -6.59375 C-17.75899697 -8.65415545 -9.93328242 -5.31946272 0 0 Z " fill="#FEF7F8" transform="translate(177,142)"/>
<path d="M0 0 C1.98 0 3.96 0 6 0 C5.34 7.92 4.68 15.84 4 24 C2.02 23.67 0.04 23.34 -2 23 C-1.34 15.41 -0.68 7.82 0 0 Z " fill="#FAC400" transform="translate(155,14)"/>
<path d="M0 0 C3.26914978 0.22545861 4.97919567 0.41828931 7.625 2.25 C9.49379431 5.98758862 8.92717149 10.04131403 7.9375 14 C6.29910875 16.80867071 4.43055475 17.69956185 1.625 19.25 C1.625 19.91 1.625 20.57 1.625 21.25 C-6.41071429 23.52678571 -6.41071429 23.52678571 -10.375 22.25 C-9.69953125 22.03085938 -9.0240625 21.81171875 -8.328125 21.5859375 C-3.87191091 20.00179203 -0.95043169 18.89393546 2.25 15.3125 C4.17735724 11.01974979 4.09381934 8.65645801 2.625 4.25 C0.75112784 3.44787372 0.75112784 3.44787372 -1.4375 3.0625 C-2.17097656 2.90394531 -2.90445313 2.74539062 -3.66015625 2.58203125 C-4.22605469 2.47246094 -4.79195312 2.36289063 -5.375 2.25 C-3.375 0.25 -3.375 0.25 0 0 Z " fill="#FDF0F1" transform="translate(142.375,114.75)"/>
<path d="M0 0 C2.9375 1 2.9375 1 5 2 C5 2.33 5 2.66 5 3 C3.72125 3.12375 2.4425 3.2475 1.125 3.375 C-2.34790936 3.69042399 -2.34790936 3.69042399 -5 6 C-5.16706799 8.14550973 -5.16706799 8.14550973 -5 10.5 C-4.875 12.90625 -4.875 12.90625 -5 15 C-5.66 15.66 -6.32 16.32 -7 17 C-9 16 -9 16 -10.125 13.875 C-11.19778772 10.35012605 -11.40002147 7.66686345 -11 4 C-8.07943292 -0.55608465 -5.15032014 -0.54213896 0 0 Z " fill="#EDDCDE" transform="translate(110,115)"/>
<path d="M0 0 C0.9590625 0.00644531 1.918125 0.01289063 2.90625 0.01953125 C5.5 0.1875 5.5 0.1875 8.5 1.1875 C7.5 4.1875 7.5 4.1875 5.953125 5.3671875 C2.40700152 6.55299312 -1.05837849 6.39728989 -4.75 6.3125 C-5.49507813 6.30347656 -6.24015625 6.29445312 -7.0078125 6.28515625 C-8.83868059 6.26168358 -10.66938238 6.22581525 -12.5 6.1875 C-8.41139906 1.95791282 -5.99586621 -0.08864856 0 0 Z " fill="#F9F2F3" transform="translate(113.5,139.8125)"/>
<path d="M0 0 C1.96425772 1.21496868 3.80827585 2.42012023 5.56640625 3.91796875 C5.56640625 4.24796875 5.56640625 4.57796875 5.56640625 4.91796875 C3.00326126 4.99929062 0.44272207 5.0586105 -2.12109375 5.10546875 C-3.20293945 5.14317383 -3.20293945 5.14317383 -4.30664062 5.18164062 C-8.86711213 5.24411284 -11.85338837 4.83438851 -15.43359375 1.91796875 C-15.43359375 1.25796875 -15.43359375 0.59796875 -15.43359375 -0.08203125 C-10.34917527 -1.77683741 -4.98329801 -2.21568788 0 0 Z " fill="#FDF2F4" transform="translate(143.43359375,141.08203125)"/>
<path d="M0 0 C0.66 0 1.32 0 2 0 C2.50806447 1.72681437 3.00610467 3.45657979 3.5 5.1875 C3.7784375 6.15042969 4.056875 7.11335938 4.34375 8.10546875 C4.96677608 10.85345876 5.12302812 13.19598416 5 16 C4.34 16 3.68 16 3 16 C2.49411853 14.08487728 1.99551609 12.16783078 1.5 10.25 C1.2215625 9.18265625 0.943125 8.1153125 0.65625 7.015625 C0 4 0 4 0 0 Z " fill="#522E14" transform="translate(55,25)"/>
<path d="M0 0 C0.66 0.99 1.32 1.98 2 3 C1.175 3.45375 0.35 3.9075 -0.5 4.375 C-1.325 4.91125 -2.15 5.4475 -3 6 C-3 6.66 -3 7.32 -3 8 C-11.03571429 10.27678571 -11.03571429 10.27678571 -15 9 C-14.33613281 8.76925781 -13.67226562 8.53851563 -12.98828125 8.30078125 C-7.5009982 6.2740913 -3.76134878 4.51361854 0 0 Z " fill="#F9D0D4" transform="translate(147,128)"/>
<path d="M0 0 C0.33 0 0.66 0 1 0 C0.52013969 5.56890517 -0.29915181 10.67067568 -2 16 C-2.66 16 -3.32 16 -4 16 C-3.47606294 10.13190493 -2.23891142 5.45126259 0 0 Z " fill="#452615" transform="translate(193,25)"/>
<path d="M0 0 C1.8871875 0.0309375 1.8871875 0.0309375 3.8125 0.0625 C3.8125 1.0525 3.8125 2.0425 3.8125 3.0625 C3.03003906 3.11148438 2.24757812 3.16046875 1.44140625 3.2109375 C0.42949219 3.28570312 -0.58242187 3.36046875 -1.625 3.4375 C-2.63433594 3.50710937 -3.64367187 3.57671875 -4.68359375 3.6484375 C-5.50988281 3.78507813 -6.33617187 3.92171875 -7.1875 4.0625 C-7.5175 4.7225 -7.8475 5.3825 -8.1875 6.0625 C-7.8575 4.4125 -7.5275 2.7625 -7.1875 1.0625 C-4.43671116 0.14557039 -2.82801087 -0.04636083 0 0 Z " fill="#E40F24" transform="translate(135.1875,136.9375)"/>
<path d="M0 0 C0.66 0.33 1.32 0.66 2 1 C2.6328125 3.50390625 2.6328125 3.50390625 3.125 6.5625 C3.29257813 7.57441406 3.46015625 8.58632812 3.6328125 9.62890625 C3.75398438 10.41136719 3.87515625 11.19382813 4 12 C3.34 12 2.68 12 2 12 C-0.62248477 8.79474083 -1.03113289 7.37982123 -0.6875 3.1875 C-0.460625 2.135625 -0.23375 1.08375 0 0 Z " fill="#513A3B" transform="translate(97,117)"/>
<path d="M0 0 C0.80050781 0.12761719 1.60101563 0.25523438 2.42578125 0.38671875 C3.23402344 0.50660156 4.04226562 0.62648437 4.875 0.75 C5.48988281 0.85699219 6.10476562 0.96398438 6.73828125 1.07421875 C6.73828125 2.06421875 6.73828125 3.05421875 6.73828125 4.07421875 C2.77828125 3.74421875 -1.18171875 3.41421875 -5.26171875 3.07421875 C-2.26171875 0.07421875 -2.26171875 0.07421875 0 0 Z " fill="#A70716" transform="translate(153.26171875,43.92578125)"/>
<path d="M0 0 C3.96 0 7.92 0 12 0 C10.35 1.32 8.7 2.64 7 4 C4.08482708 2.92598892 2.22189824 2.22189824 0 0 Z " fill="#EBCED1" transform="translate(119,114)"/>
<path d="M0 0 C0.94875 0.04125 1.8975 0.0825 2.875 0.125 C3.205 1.445 3.535 2.765 3.875 4.125 C-0.58 3.135 -0.58 3.135 -5.125 2.125 C-3.125 0.125 -3.125 0.125 0 0 Z " fill="#FCE8EA" transform="translate(137.125,107.875)"/>
<path d="M0 0 C2.875 -0.125 2.875 -0.125 6 0 C6.66 0.66 7.32 1.32 8 2 C5.03 2.66 2.06 3.32 -1 4 C-0.67 2.68 -0.34 1.36 0 0 Z " fill="#F6E7E8" transform="translate(110,108)"/>
<path d="M0 0 C0.99 0.33 1.98 0.66 3 1 C3 2.65 3 4.3 3 6 C2.01 6.33 1.02 6.66 0 7 C0 4.69 0 2.38 0 0 Z " fill="#6A3712" transform="translate(126,25)"/>
<path d="M0 0 C0.66 0.33 1.32 0.66 2 1 C1.34 2.98 0.68 4.96 0 7 C-0.66 7 -1.32 7 -2 7 C-1.125 1.125 -1.125 1.125 0 0 Z " fill="#5B3014" transform="translate(207,38)"/>
</svg>
